<svg id="visual" viewBox="0 0 2000 100" width="2000" height="100" xmlns="http://www.w3.org/2000/svg" xmlns:xlink="http://www.w3.org/1999/xlink" version="1.1"><rect x="0" y="0" width="2000" height="100" fill="#fff"></rect><path d="M0 50L30.3 53C60.7 56 121.3 62 182 63.7C242.7 65.3 303.3 62.7 363.8 59.8C424.3 57 484.7 54 545.2 51C605.7 48 666.3 45 727 46.8C787.7 48.7 848.3 55.3 909 58.2C969.7 61 1030.3 60 1091 60C1151.7 60 1212.3 61 1273 58.3C1333.7 55.7 1394.3 49.3 1454.8 44.8C1515.3 40.3 1575.7 37.7 1636.2 40.7C1696.7 43.7 1757.3 52.3 1818 59.3C1878.7 66.3 1939.3 71.7 1969.7 74.3L2000 77L2000 101L1969.7 101C1939.3 101 1878.7 101 1818 101C1757.3 101 1696.7 101 1636.2 101C1575.7 101 1515.3 101 1454.8 101C1394.3 101 1333.7 101 1273 101C1212.3 101 1151.7 101 1091 101C1030.3 101 969.7 101 909 101C848.3 101 787.7 101 727 101C666.3 101 605.7 101 545.2 101C484.7 101 424.3 101 363.8 101C303.3 101 242.7 101 182 101C121.3 101 60.7 101 30.3 101L0 101Z" fill="#D4A8E2" stroke-linecap="round" stroke-linejoin="miter"></path></svg>